Coordinates
version=1
nRows=17
nColumns=36
inDegrees=yes

Units are S.I. units (second, meters, Newtons, ...)
If the header above contains a line with 'inDegrees', this indicates whether rotational values are in degrees (yes) or radians (no).

endheader
time	pelvis_tilt	pelvis_list	pelvis_rotation	pelvis_tx	pelvis_ty	pelvis_tz	hip_flexion_r	hip_adduction_r	hip_rotation_r	knee_angle_r	knee_angle_r_beta	ankle_angle_r	subtalar_angle_r	mtp_angle_r	hip_flexion_l	hip_adduction_l	hip_rotation_l	knee_angle_l	knee_angle_l_beta	ankle_angle_l	subtalar_angle_l	mtp_angle_l	lumbar_extension	lumbar_bending	lumbar_rotation	arm_flex_r	arm_add_r	arm_rot_r	elbow_flex_r	pro_sup_r	arm_flex_l	arm_add_l	arm_rot_l	elbow_flex_l	pro_sup_l
      6.66666670	     -5.30423260	     -0.38272295	      0.08927270	     -0.32923107	      1.27183022	     -0.06776467	     -0.21274375	      0.79250122	     -7.17711951	      8.84469612	      0.15436907	     15.13879034	    -12.51728994	     -7.49999987	      4.01079385	     -1.30882106	     -5.92660526	     15.27875932	      0.26666466	     15.09108122	     -7.85943305	     -7.49999987	     -5.21282263	      0.61654205	     -1.05682730	      5.69642549	     -7.23782404	     26.18934885	     18.87325238	     77.75137304	     -0.03125424	    -11.55029841	     21.21584184	     29.52260582	     91.72239960
      6.68333330	     -5.28213466	     -0.36625876	      0.15584915	     -0.32926132	      1.26966707	     -0.06785088	     -0.23704095	      0.77863720	     -7.32827066	      8.84850281	      0.15443551	     15.28000172	    -12.42551060	     -7.49999987	      4.00251286	     -1.27995196	     -5.93720878	     15.22606380	      0.26574495	     15.18414935	     -7.75583581	     -7.49999987	     -5.42806573	      0.59400871	     -0.87780462	      5.73356302	     -7.29766669	     25.92321620	     19.08659415	     76.63013284	      0.17350776	    -11.63839493	     21.35164269	     29.84964065	     89.01024862
      6.70000000	     -5.29886070	     -0.35086134	      0.23921869	     -0.32928111	      1.27182170	     -0.06782120	     -0.26511576	      0.75619827	     -7.39314005	      8.81279568	      0.15381230	     15.18181483	    -12.32338507	     -7.49999987	      4.01610007	     -1.26527304	     -5.88839437	     15.23178383	      0.26584478	     15.22754568	     -7.70088497	     -7.49999987	     -5.54391748	      0.54328390	     -1.12720502	      5.70382169	     -7.15797974	     25.80613831	     19.10042391	     75.57983893	      0.14201893	    -11.57963132	     21.54189177	     29.52524502	     87.42289543
      6.71666670	     -5.27779730	     -0.35027296	      0.19528595	     -0.32942960	      1.26992328	     -0.06795596	     -0.21169050	      0.73562602	     -7.46683744	      8.89349134	      0.15522071	     15.24656737	    -12.25954253	     -7.49999987	      3.98593754	     -1.22704707	     -5.92148883	     15.07622531	      0.26312977	     15.35709883	     -7.52770240	     -7.49999987	     -5.66149329	      0.52552449	     -0.91312827	      5.82782547	     -7.27687439	     26.11531876	     19.05465428	     74.99151830	      0.33596849	    -11.70827515	     21.95084782	     29.73832989	     86.22084844
      6.73333330	     -5.43650941	     -0.37114697	      0.22230813	     -0.32925981	      1.26924570	     -0.06777988	     -0.01421631	      0.76470272	     -7.29293097	      8.96880861	      0.15653524	     14.96850848	    -12.59165969	     -7.49999987	      4.15207644	     -1.26313414	     -5.91066476	     15.11306148	      0.26377268	     15.45070351	     -7.52520475	     -7.49999987	     -5.46564601	      0.49486997	     -1.23760635	      5.72316584	     -7.17497075	     26.25091289	     19.06810484	     74.03913184	      0.24044596	    -11.66923675	     22.11669244	     29.47975599	     84.88036102
      6.75000000	     -5.52621466	     -0.42058192	      0.14519091	     -0.32916889	      1.26919971	     -0.06772360	      0.14504439	      0.82432039	     -7.37676420	      8.97735874	      0.15668447	     15.08828953	    -12.50474393	     -7.49999987	      4.16491324	     -1.30374409	     -6.07614966	     14.91369127	      0.26029302	     15.70487985	     -7.24400265	     -7.49999987	     -5.32995697	      0.53973442	     -1.00150307	      5.91851538	     -7.47835683	     28.19858145	     18.98776899	     75.35275831	      0.43937503	    -11.86983297	     23.04177849	     29.53877719	     87.08989404
      6.76666670	     -5.56602626	     -0.39296506	      0.21924980	     -0.32921307	      1.27195758	     -0.06777215	      0.20392026	      0.81548104	     -7.39149358	      8.96141020	      0.15640611	     14.82224436	    -12.70489911	     -7.49999987	      4.20446218	     -1.27925236	     -5.97499108	     14.98639779	      0.26156198	     15.76634544	     -7.34572341	     -7.49999987	     -5.35901308	      0.45702397	     -1.21010602	      5.72346353	     -7.25585717	     26.59305550	     19.06333454	     77.72946093	      0.42824848	    -11.67662994	     21.82265845	     29.12405410	     90.70493001
      6.78333330	     -5.54278672	     -0.37878936	      0.16467195	     -0.32943490	      1.26973185	     -0.06783984	      0.22154327	      0.79741190	     -7.52439862	      8.97845457	      0.15670359	     14.79801836	    -12.74670255	     -7.49999987	      4.11143642	     -1.24976870	     -6.09104318	     14.81706983	      0.25860665	     15.99584932	     -7.20287505	     -7.49999987	     -5.49104809	      0.43001023	     -0.99257598	      5.85743051	     -7.34061928	     26.54161497	     19.07733520	     77.74060034	      0.45061278	    -11.79553466	     21.77150150	     29.67754857	     89.62800946
      6.80000000	     -5.58792039	     -0.33978687	      0.08905500	     -0.33577923	      1.26948642	     -0.07055957	      0.42907479	      0.70677547	     -7.53750958	      9.03237173	      0.15764463	     14.71295180	    -12.76995119	     -7.49999987	      4.21677096	     -1.16306419	     -6.13037025	     14.87744619	      0.25966042	     16.08831931	     -7.28082053	     -7.49999987	     -5.70840193	      0.41711576	     -1.09728403	      5.88371544	     -7.32541169	     26.53636534	     19.09736096	     77.74456349	      0.53877701	    -11.65448786	     21.77338035	     29.66628885	     89.63712364
      6.81666670	     -5.61399021	     -0.32158188	      0.00331829	     -0.32971408	      1.26995760	     -0.06749950	      0.73960115	      0.68121813	     -7.60982185	      9.32547887	      0.16276031	     14.66666594	    -13.04461650	     -7.49999987	      4.23066348	     -1.10613932	     -6.11555882	     14.86567144	      0.25945491	     16.18913367	     -7.40108672	     -7.49999987	     -5.90764527	      0.41510241	     -0.71192502	      6.07967469	     -7.48432796	     26.59593552	     19.24041303	     77.79177108	      0.68493614	    -11.65513927	     21.55093643	     29.82596521	     89.68098998
      6.83333330	     -5.74814995	     -0.29012242	     -0.14102062	     -0.32967922	      1.27459340	     -0.06700154	      0.88917673	      0.64418894	     -7.52774776	      9.30846612	      0.16246338	     14.48177555	    -12.99491480	     -7.49999987	      3.93862865	     -1.03280301	     -6.20218851	     14.24580665	      0.24863623	     15.96592207	     -7.31889833	     -7.49999987	     -5.86940034	      0.37833065	     -0.71630518	      5.91439942	     -7.43289435	     26.52105264	     19.37424175	     77.82570141	      0.52128237	    -11.53311122	     21.30448148	     29.64370355	     89.71757201
      6.85000000	     -5.58610649	     -0.30768229	     -0.36715304	     -0.32966605	      1.26973087	     -0.06697384	      0.79269501	      0.65689962	     -7.60229604	      9.39816500	      0.16402892	     14.75410530	    -12.64352794	     -7.49999987	      3.59012875	     -1.03145366	     -6.30440296	     13.95911841	      0.24363258	     16.01819756	     -7.43239821	     -7.49999987	     -6.31598907	      0.40671024	     -0.24815750	      6.10327174	     -7.62206287	     26.76726559	     19.56721236	     77.59152467	      0.40080904	    -11.53300519	     20.28591186	     30.41138602	     89.46352146
      6.86666670	     -5.74365121	     -0.32930392	     -0.57207436	     -0.33588841	      1.26933755	     -0.06389817	      1.23086850	      0.70955899	     -7.41246129	      9.76755752	      0.17047604	     14.57119355	    -12.97760415	     -7.49999987	      3.74593320	     -1.10775404	     -6.35084841	     13.93150953	      0.24315071	     15.93661937	     -7.60622270	     -7.49999987	     -6.46869706	      0.43483920	     -0.27820006	      6.17170793	     -7.53190927	     26.62354516	     19.61170284	     77.64201433	      0.43095524	    -11.44816947	     20.04422291	     30.19969318	     89.58028204
      6.88333330	     -5.83024936	     -0.39107733	     -0.76222275	     -0.33585609	      1.26700776	     -0.06398270	      1.59911508	      0.78822233	     -7.47044009	     10.12145807	      0.17665277	     14.69926082	    -12.96019640	     -7.49999987	      3.90633855	     -1.21582627	     -6.46469058	     13.95029585	      0.24347859	     15.85743607	     -7.65288711	     -7.49999987	     -6.67450580	      0.47774643	      0.06326086	      6.35460009	     -7.65556325	     26.53939312	     19.83906379	     77.53035580	      0.53218273	    -11.50949122	     19.70994158	     30.65247980	     89.09672213
      6.90000000	     -5.96007319	     -0.47206777	     -0.94314688	     -0.34250379	      1.27000860	     -0.06689901	      2.14125235	      0.83735665	     -7.53540812	     10.49008469	      0.18308652	     14.40382270	    -13.12587631	     -7.49999987	      4.12471591	     -1.30300981	     -6.56598273	     13.90494685	      0.24268710	     15.72805909	     -7.68848190	     -7.49999987	     -7.03556835	      0.56492489	     -0.05948241	      6.67692029	     -7.62779172	     26.47632048	     19.93084547	     77.54885050	      0.71371547	    -11.44837591	     19.63005181	     30.62727355	     89.14813073
      6.91666670	     -6.23262533	     -0.52556741	     -1.23768457	     -0.34271966	      1.26764536	     -0.06687566	      3.03214322	      0.84758431	     -7.42105246	     11.14484902	      0.19451431	     14.44526705	    -13.71326447	     -7.49999987	      4.54886977	     -1.32831441	     -6.69832189	     13.86025737	      0.24190713	     15.67200131	     -7.86999966	     -7.49999987	     -7.17781537	      0.62810718	      0.25406673	      7.04061827	     -7.81593949	     26.44194450	     20.19165618	     76.87592025	      0.73615605	    -11.42013768	     19.08589628	     31.02137048	     88.20847162
      6.93333330	     -6.55445474	     -0.54340987	     -1.51913321	     -0.34248190	      1.27041458	     -0.06656629	      3.79089536	      0.83036653	     -7.29945962	     11.59105258	      0.20230203	     14.49450149	    -13.86017752	     -7.49999987	      4.80721711	     -1.29598930	     -6.80886661	     13.59712731	      0.23731464	     15.60595029	     -7.97431233	     -7.49999987	     -7.24909296	      0.71363500	      0.12632798	      7.18780805	     -7.77595122	     26.25757178	     20.30853958	     76.13126556	      0.82477974	    -11.22871649	     18.66372409	     30.72841324	     87.25322551
